<mxfile host="app.diagrams.net" modified="2023-04-08T10:28:42.057Z" agent="Mozilla/5.0 (Macintosh; Intel Mac OS X 10_15_7) AppleWebKit/537.36 (KHTML, like Gecko) Chrome/112.0.0.0 Safari/537.36" etag="j5djZJ4_szS433j1qSBN" version="21.1.5" type="device">
  <diagram name="Page-1" id="acX5bbX6ohHZKl1gG4sX">
    <mxGraphModel dx="2442" dy="2045" grid="1" gridSize="10" guides="1" tooltips="1" connect="1" arrows="1" fold="1" page="1" pageScale="1" pageWidth="850" pageHeight="1100" math="0" shadow="0">
      <root>
        <mxCell id="0" />
        <mxCell id="1" parent="0" />
        <mxCell id="2c_V3igSBwsv665nDBpx-11" value="Submodule" style="swimlane;whiteSpace=wrap;html=1;" parent="1" vertex="1">
          <mxGeometry x="40" y="320" width="280" height="140" as="geometry" />
        </mxCell>
        <mxCell id="2c_V3igSBwsv665nDBpx-13" value="Service" style="rounded=0;whiteSpace=wrap;html=1;fillColor=#d5e8d4;strokeColor=#82b366;" parent="2c_V3igSBwsv665nDBpx-11" vertex="1">
          <mxGeometry x="160" y="50" width="120" height="60" as="geometry" />
        </mxCell>
        <mxCell id="2c_V3igSBwsv665nDBpx-16" style="edgeStyle=orthogonalEdgeStyle;rounded=0;orthogonalLoop=1;jettySize=auto;html=1;entryX=0;entryY=0.5;entryDx=0;entryDy=0;fillColor=#f8cecc;strokeColor=#b85450;" parent="2c_V3igSBwsv665nDBpx-11" source="2c_V3igSBwsv665nDBpx-14" target="2c_V3igSBwsv665nDBpx-13" edge="1">
          <mxGeometry relative="1" as="geometry" />
        </mxCell>
        <mxCell id="2c_V3igSBwsv665nDBpx-14" value="Module" style="rounded=0;whiteSpace=wrap;html=1;fillColor=#f8cecc;strokeColor=#b85450;" parent="2c_V3igSBwsv665nDBpx-11" vertex="1">
          <mxGeometry y="50" width="120" height="60" as="geometry" />
        </mxCell>
        <mxCell id="2c_V3igSBwsv665nDBpx-18" value="Submodule" style="swimlane;whiteSpace=wrap;html=1;" parent="1" vertex="1">
          <mxGeometry x="40" y="500" width="280" height="140" as="geometry" />
        </mxCell>
        <mxCell id="2c_V3igSBwsv665nDBpx-21" value="Service" style="rounded=0;whiteSpace=wrap;html=1;fillColor=#d5e8d4;strokeColor=#82b366;" parent="2c_V3igSBwsv665nDBpx-18" vertex="1">
          <mxGeometry x="160" y="50" width="120" height="60" as="geometry" />
        </mxCell>
        <mxCell id="2c_V3igSBwsv665nDBpx-23" style="edgeStyle=orthogonalEdgeStyle;rounded=0;orthogonalLoop=1;jettySize=auto;html=1;entryX=0;entryY=0.5;entryDx=0;entryDy=0;fillColor=#f8cecc;strokeColor=#b85450;" parent="2c_V3igSBwsv665nDBpx-18" source="2c_V3igSBwsv665nDBpx-24" target="2c_V3igSBwsv665nDBpx-21" edge="1">
          <mxGeometry relative="1" as="geometry" />
        </mxCell>
        <mxCell id="2c_V3igSBwsv665nDBpx-24" value="Module" style="rounded=0;whiteSpace=wrap;html=1;fillColor=#f8cecc;strokeColor=#b85450;" parent="2c_V3igSBwsv665nDBpx-18" vertex="1">
          <mxGeometry y="50" width="120" height="60" as="geometry" />
        </mxCell>
        <mxCell id="2c_V3igSBwsv665nDBpx-25" value="UniFlux" style="swimlane;whiteSpace=wrap;html=1;" parent="1" vertex="1">
          <mxGeometry x="-525" y="-200" width="200" height="140" as="geometry" />
        </mxCell>
        <mxCell id="2c_V3igSBwsv665nDBpx-5" value="Flux" style="rounded=0;whiteSpace=wrap;html=1;fillColor=#e1d5e7;strokeColor=#9673a6;" parent="2c_V3igSBwsv665nDBpx-25" vertex="1">
          <mxGeometry x="40" y="50" width="120" height="60" as="geometry" />
        </mxCell>
        <mxCell id="2c_V3igSBwsv665nDBpx-50" value="Core" style="swimlane;whiteSpace=wrap;html=1;" parent="1" vertex="1">
          <mxGeometry x="-280" y="-40" width="280" height="320" as="geometry" />
        </mxCell>
        <mxCell id="2c_V3igSBwsv665nDBpx-28" value="Module" style="swimlane;whiteSpace=wrap;html=1;" parent="2c_V3igSBwsv665nDBpx-50" vertex="1">
          <mxGeometry y="40" width="120" height="120" as="geometry" />
        </mxCell>
        <mxCell id="2c_V3igSBwsv665nDBpx-30" value="Module" style="rounded=0;whiteSpace=wrap;html=1;fillColor=#f8cecc;strokeColor=#b85450;" parent="2c_V3igSBwsv665nDBpx-28" vertex="1">
          <mxGeometry y="40" width="120" height="60" as="geometry" />
        </mxCell>
        <mxCell id="2c_V3igSBwsv665nDBpx-31" value="Module" style="swimlane;whiteSpace=wrap;html=1;" parent="2c_V3igSBwsv665nDBpx-50" vertex="1">
          <mxGeometry y="180" width="120" height="120" as="geometry" />
        </mxCell>
        <mxCell id="2c_V3igSBwsv665nDBpx-32" value="Module&lt;br&gt;N+1" style="rounded=0;whiteSpace=wrap;html=1;fillColor=#f8cecc;strokeColor=#b85450;" parent="2c_V3igSBwsv665nDBpx-31" vertex="1">
          <mxGeometry y="40" width="120" height="60" as="geometry" />
        </mxCell>
        <mxCell id="2c_V3igSBwsv665nDBpx-35" value="Service" style="swimlane;whiteSpace=wrap;html=1;" parent="2c_V3igSBwsv665nDBpx-50" vertex="1">
          <mxGeometry x="160" y="40" width="120" height="260" as="geometry" />
        </mxCell>
        <mxCell id="2c_V3igSBwsv665nDBpx-36" value="Service" style="rounded=0;whiteSpace=wrap;html=1;fillColor=#d5e8d4;strokeColor=#82b366;" parent="2c_V3igSBwsv665nDBpx-35" vertex="1">
          <mxGeometry y="40" width="120" height="60" as="geometry" />
        </mxCell>
        <mxCell id="ZMlt4d_sLRgXzANAK9f9-1" value="Service &lt;br&gt;N+1" style="rounded=0;whiteSpace=wrap;html=1;fillColor=#d5e8d4;strokeColor=#82b366;" parent="2c_V3igSBwsv665nDBpx-35" vertex="1">
          <mxGeometry y="180" width="120" height="60" as="geometry" />
        </mxCell>
        <mxCell id="ZMlt4d_sLRgXzANAK9f9-17" value="" style="edgeStyle=none;orthogonalLoop=1;jettySize=auto;html=1;rounded=0;exitX=1;exitY=0.5;exitDx=0;exitDy=0;fillColor=#f8cecc;strokeColor=#b85450;" parent="2c_V3igSBwsv665nDBpx-50" source="2c_V3igSBwsv665nDBpx-30" target="2c_V3igSBwsv665nDBpx-36" edge="1">
          <mxGeometry width="80" relative="1" as="geometry">
            <mxPoint x="370" y="250" as="sourcePoint" />
            <mxPoint x="450" y="250" as="targetPoint" />
            <Array as="points" />
          </mxGeometry>
        </mxCell>
        <mxCell id="ZMlt4d_sLRgXzANAK9f9-19" value="" style="edgeStyle=none;orthogonalLoop=1;jettySize=auto;html=1;rounded=0;exitX=1;exitY=0.5;exitDx=0;exitDy=0;entryX=0;entryY=0.5;entryDx=0;entryDy=0;fillColor=#f8cecc;strokeColor=#b85450;" parent="2c_V3igSBwsv665nDBpx-50" source="2c_V3igSBwsv665nDBpx-32" target="2c_V3igSBwsv665nDBpx-36" edge="1">
          <mxGeometry width="80" relative="1" as="geometry">
            <mxPoint x="690" y="260" as="sourcePoint" />
            <mxPoint x="770" y="260" as="targetPoint" />
            <Array as="points" />
          </mxGeometry>
        </mxCell>
        <mxCell id="ZMlt4d_sLRgXzANAK9f9-20" value="" style="edgeStyle=none;orthogonalLoop=1;jettySize=auto;html=1;rounded=0;exitX=1;exitY=0.5;exitDx=0;exitDy=0;fillColor=#f8cecc;strokeColor=#b85450;entryX=0;entryY=0.5;entryDx=0;entryDy=0;" parent="2c_V3igSBwsv665nDBpx-50" source="2c_V3igSBwsv665nDBpx-30" edge="1" target="ZMlt4d_sLRgXzANAK9f9-1">
          <mxGeometry width="80" relative="1" as="geometry">
            <mxPoint x="540" y="210" as="sourcePoint" />
            <mxPoint x="160" y="250" as="targetPoint" />
            <Array as="points" />
          </mxGeometry>
        </mxCell>
        <mxCell id="ZMlt4d_sLRgXzANAK9f9-18" value="" style="edgeStyle=none;orthogonalLoop=1;jettySize=auto;html=1;rounded=0;exitX=1;exitY=0.5;exitDx=0;exitDy=0;fillColor=#f8cecc;strokeColor=#b85450;entryX=0;entryY=0.5;entryDx=0;entryDy=0;" parent="2c_V3igSBwsv665nDBpx-50" source="2c_V3igSBwsv665nDBpx-32" edge="1" target="ZMlt4d_sLRgXzANAK9f9-1">
          <mxGeometry width="80" relative="1" as="geometry">
            <mxPoint x="650" y="250" as="sourcePoint" />
            <mxPoint x="160" y="250" as="targetPoint" />
            <Array as="points" />
          </mxGeometry>
        </mxCell>
        <mxCell id="2c_V3igSBwsv665nDBpx-54" style="edgeStyle=orthogonalEdgeStyle;rounded=0;orthogonalLoop=1;jettySize=auto;html=1;entryX=1;entryY=0.5;entryDx=0;entryDy=0;fillColor=#d5e8d4;strokeColor=#82b366;exitX=1;exitY=0.5;exitDx=0;exitDy=0;" parent="1" source="2c_V3igSBwsv665nDBpx-13" target="2c_V3igSBwsv665nDBpx-5" edge="1">
          <mxGeometry relative="1" as="geometry">
            <Array as="points">
              <mxPoint x="400" y="400" />
              <mxPoint x="400" y="-120" />
            </Array>
          </mxGeometry>
        </mxCell>
        <mxCell id="2c_V3igSBwsv665nDBpx-55" style="edgeStyle=orthogonalEdgeStyle;rounded=0;orthogonalLoop=1;jettySize=auto;html=1;entryX=1;entryY=0.5;entryDx=0;entryDy=0;fillColor=#d5e8d4;strokeColor=#82b366;" parent="1" source="2c_V3igSBwsv665nDBpx-21" target="2c_V3igSBwsv665nDBpx-5" edge="1">
          <mxGeometry relative="1" as="geometry">
            <Array as="points">
              <mxPoint x="400" y="580" />
              <mxPoint x="400" y="-120" />
            </Array>
          </mxGeometry>
        </mxCell>
        <mxCell id="2c_V3igSBwsv665nDBpx-56" style="edgeStyle=orthogonalEdgeStyle;rounded=0;orthogonalLoop=1;jettySize=auto;html=1;exitX=0.5;exitY=1;exitDx=0;exitDy=0;entryX=0;entryY=0.5;entryDx=0;entryDy=0;dashed=1;fillColor=#e1d5e7;strokeColor=#9673a6;" parent="1" source="2c_V3igSBwsv665nDBpx-5" target="2c_V3igSBwsv665nDBpx-30" edge="1">
          <mxGeometry relative="1" as="geometry" />
        </mxCell>
        <mxCell id="2c_V3igSBwsv665nDBpx-57" style="edgeStyle=orthogonalEdgeStyle;rounded=0;orthogonalLoop=1;jettySize=auto;html=1;exitX=0.5;exitY=1;exitDx=0;exitDy=0;entryX=0;entryY=0.5;entryDx=0;entryDy=0;dashed=1;fillColor=#e1d5e7;strokeColor=#9673a6;" parent="1" source="2c_V3igSBwsv665nDBpx-5" target="2c_V3igSBwsv665nDBpx-32" edge="1">
          <mxGeometry relative="1" as="geometry">
            <mxPoint x="-415" y="-80" as="sourcePoint" />
            <mxPoint x="-270" y="80" as="targetPoint" />
          </mxGeometry>
        </mxCell>
        <mxCell id="2c_V3igSBwsv665nDBpx-60" style="edgeStyle=orthogonalEdgeStyle;rounded=0;orthogonalLoop=1;jettySize=auto;html=1;exitX=0.5;exitY=1;exitDx=0;exitDy=0;entryX=0;entryY=0.5;entryDx=0;entryDy=0;dashed=1;fillColor=#e1d5e7;strokeColor=#9673a6;" parent="1" source="2c_V3igSBwsv665nDBpx-5" target="2c_V3igSBwsv665nDBpx-14" edge="1">
          <mxGeometry relative="1" as="geometry" />
        </mxCell>
        <mxCell id="2c_V3igSBwsv665nDBpx-61" style="edgeStyle=orthogonalEdgeStyle;rounded=0;orthogonalLoop=1;jettySize=auto;html=1;exitX=0.5;exitY=1;exitDx=0;exitDy=0;entryX=0;entryY=0.5;entryDx=0;entryDy=0;dashed=1;fillColor=#e1d5e7;strokeColor=#9673a6;" parent="1" source="2c_V3igSBwsv665nDBpx-5" target="2c_V3igSBwsv665nDBpx-24" edge="1">
          <mxGeometry relative="1" as="geometry" />
        </mxCell>
        <mxCell id="ZMlt4d_sLRgXzANAK9f9-29" style="edgeStyle=orthogonalEdgeStyle;rounded=0;orthogonalLoop=1;jettySize=auto;html=1;exitX=1;exitY=0.5;exitDx=0;exitDy=0;entryX=1;entryY=0.5;entryDx=0;entryDy=0;fillColor=#d5e8d4;strokeColor=#82b366;" parent="1" source="2c_V3igSBwsv665nDBpx-36" target="2c_V3igSBwsv665nDBpx-5" edge="1">
          <mxGeometry relative="1" as="geometry">
            <Array as="points">
              <mxPoint x="400" y="70" />
              <mxPoint x="400" y="-120" />
            </Array>
          </mxGeometry>
        </mxCell>
        <mxCell id="ZMlt4d_sLRgXzANAK9f9-30" style="edgeStyle=orthogonalEdgeStyle;rounded=0;orthogonalLoop=1;jettySize=auto;html=1;exitX=1;exitY=0.5;exitDx=0;exitDy=0;entryX=1;entryY=0.5;entryDx=0;entryDy=0;fillColor=#d5e8d4;strokeColor=#82b366;" parent="1" source="ZMlt4d_sLRgXzANAK9f9-1" target="2c_V3igSBwsv665nDBpx-5" edge="1">
          <mxGeometry relative="1" as="geometry">
            <Array as="points">
              <mxPoint x="400" y="210" />
              <mxPoint x="400" y="-120" />
            </Array>
          </mxGeometry>
        </mxCell>
        <mxCell id="ZMlt4d_sLRgXzANAK9f9-35" style="edgeStyle=orthogonalEdgeStyle;rounded=0;orthogonalLoop=1;jettySize=auto;html=1;dashed=1;" parent="1" source="ZMlt4d_sLRgXzANAK9f9-32" target="ZMlt4d_sLRgXzANAK9f9-33" edge="1">
          <mxGeometry relative="1" as="geometry" />
        </mxCell>
        <mxCell id="ZMlt4d_sLRgXzANAK9f9-32" value="Flux" style="rounded=0;whiteSpace=wrap;html=1;fillColor=#e1d5e7;strokeColor=#9673a6;" parent="1" vertex="1">
          <mxGeometry x="-350" y="-440" width="120" height="60" as="geometry" />
        </mxCell>
        <mxCell id="ZMlt4d_sLRgXzANAK9f9-36" style="edgeStyle=orthogonalEdgeStyle;rounded=0;orthogonalLoop=1;jettySize=auto;html=1;entryX=1;entryY=0.5;entryDx=0;entryDy=0;" parent="1" source="ZMlt4d_sLRgXzANAK9f9-33" target="ZMlt4d_sLRgXzANAK9f9-34" edge="1">
          <mxGeometry relative="1" as="geometry">
            <Array as="points">
              <mxPoint x="20" y="-260" />
            </Array>
          </mxGeometry>
        </mxCell>
        <mxCell id="ZMlt4d_sLRgXzANAK9f9-33" value="Module" style="rounded=0;whiteSpace=wrap;html=1;fillColor=#f8cecc;strokeColor=#b85450;" parent="1" vertex="1">
          <mxGeometry x="-40" y="-440" width="120" height="60" as="geometry" />
        </mxCell>
        <mxCell id="ZMlt4d_sLRgXzANAK9f9-37" style="edgeStyle=orthogonalEdgeStyle;rounded=0;orthogonalLoop=1;jettySize=auto;html=1;" parent="1" source="ZMlt4d_sLRgXzANAK9f9-34" target="ZMlt4d_sLRgXzANAK9f9-32" edge="1">
          <mxGeometry relative="1" as="geometry" />
        </mxCell>
        <mxCell id="ZMlt4d_sLRgXzANAK9f9-34" value="Service" style="rounded=0;whiteSpace=wrap;html=1;fillColor=#d5e8d4;strokeColor=#82b366;" parent="1" vertex="1">
          <mxGeometry x="-200" y="-290" width="120" height="60" as="geometry" />
        </mxCell>
        <mxCell id="dt93SpW6wM9uO4FDnJXl-3" style="edgeStyle=orthogonalEdgeStyle;rounded=0;orthogonalLoop=1;jettySize=auto;html=1;entryX=0;entryY=0.5;entryDx=0;entryDy=0;fillColor=#d5e8d4;strokeColor=#82b366;" edge="1" parent="1" source="ZMlt4d_sLRgXzANAK9f9-1" target="2c_V3igSBwsv665nDBpx-13">
          <mxGeometry relative="1" as="geometry">
            <Array as="points">
              <mxPoint x="20" y="210" />
              <mxPoint x="20" y="360" />
              <mxPoint x="180" y="360" />
              <mxPoint x="180" y="400" />
            </Array>
          </mxGeometry>
        </mxCell>
        <mxCell id="dt93SpW6wM9uO4FDnJXl-4" style="edgeStyle=orthogonalEdgeStyle;rounded=0;orthogonalLoop=1;jettySize=auto;html=1;exitX=1;exitY=0.5;exitDx=0;exitDy=0;entryX=0;entryY=0.5;entryDx=0;entryDy=0;fillColor=#d5e8d4;strokeColor=#82b366;" edge="1" parent="1" source="ZMlt4d_sLRgXzANAK9f9-1" target="2c_V3igSBwsv665nDBpx-21">
          <mxGeometry relative="1" as="geometry">
            <Array as="points">
              <mxPoint x="20" y="210" />
              <mxPoint x="20" y="540" />
              <mxPoint x="180" y="540" />
              <mxPoint x="180" y="580" />
            </Array>
          </mxGeometry>
        </mxCell>
        <mxCell id="dt93SpW6wM9uO4FDnJXl-5" style="edgeStyle=orthogonalEdgeStyle;rounded=0;orthogonalLoop=1;jettySize=auto;html=1;exitX=1;exitY=0.5;exitDx=0;exitDy=0;entryX=0;entryY=0.5;entryDx=0;entryDy=0;fillColor=#d5e8d4;strokeColor=#82b366;" edge="1" parent="1" source="2c_V3igSBwsv665nDBpx-36" target="2c_V3igSBwsv665nDBpx-13">
          <mxGeometry relative="1" as="geometry">
            <Array as="points">
              <mxPoint x="20" y="70" />
              <mxPoint x="20" y="360" />
              <mxPoint x="180" y="360" />
              <mxPoint x="180" y="400" />
            </Array>
          </mxGeometry>
        </mxCell>
        <mxCell id="dt93SpW6wM9uO4FDnJXl-6" style="edgeStyle=orthogonalEdgeStyle;rounded=0;orthogonalLoop=1;jettySize=auto;html=1;exitX=1;exitY=0.5;exitDx=0;exitDy=0;entryX=0;entryY=0.5;entryDx=0;entryDy=0;fillColor=#d5e8d4;strokeColor=#82b366;" edge="1" parent="1" source="ZMlt4d_sLRgXzANAK9f9-1" target="2c_V3igSBwsv665nDBpx-21">
          <mxGeometry relative="1" as="geometry">
            <Array as="points">
              <mxPoint x="20" y="210" />
              <mxPoint x="20" y="540" />
              <mxPoint x="180" y="540" />
              <mxPoint x="180" y="580" />
            </Array>
          </mxGeometry>
        </mxCell>
      </root>
    </mxGraphModel>
  </diagram>
</mxfile>
